<?xml version="1.0" standalone="no"?>
<!DOCTYPE svg PUBLIC "-//W3C//DTD SVG 1.1//EN" "http://www.w3.org/Graphics/SVG/1.1/DTD/svg11.dtd" >
<svg xmlns="http://www.w3.org/2000/svg">
<metadata></metadata>
<defs>
<font id="bright_and_beautifulregular" horiz-adv-x="2048" >
<font-face units-per-em="2048" ascent="1528" descent="-520" />
<missing-glyph horiz-adv-x="260" />
<glyph />
<glyph />
<glyph unicode="&#xd;" />
<glyph />
<glyph />
<glyph />
<glyph />
<glyph unicode=" "  horiz-adv-x="260" />
<glyph unicode="&#x09;" horiz-adv-x="260" />
<glyph unicode="&#xa0;" horiz-adv-x="260" />
<glyph unicode="!" horiz-adv-x="192" d="M23 934q0 6 3 10t7 6t11 3t11 1h10h7l12 1q12 1 21.5 0t13.5 -5q26 -30 26 -180v-90q0 -119 2.5 -203t5.5 -121.5t3 -44.5q0 -13 -27.5 -22.5t-38.5 -9.5q-18 0 -29 18q-4 121 -10.5 259.5t-7.5 164.5q-1 51 -10.5 129.5t-9.5 83.5zM66 45q0 20 13 33.5t32 13.5 q23 0 40 -16t17 -39q0 -19 -21 -30t-34 -11q-22 0 -34.5 16t-12.5 33z" />
<glyph unicode="&#x22;" horiz-adv-x="305" d="M42.5 918q-0.5 27 1 58.5t8 51t16.5 19.5q18 0 37.5 -12t19.5 -29l1 -7q1 -7 2.5 -18t3 -25t2 -29.5t0 -30.5t-3 -29.5t-7.5 -24.5q-9 -17 -43 -17q-17 0 -35 11l-1 28q-1 27 -1.5 54zM185.5 918q-0.5 27 1 58.5t8 51t16.5 19.5q18 0 37.5 -12t19.5 -29l1 -7 q1 -7 2.5 -18t3 -25t2 -29.5t0 -30.5t-3 -29.5t-7.5 -24.5q-8 -17 -43 -17q-17 0 -35 11l-1 28q-1 27 -1.5 54z" />
<glyph unicode="#" horiz-adv-x="634" d="M35 692q0 16 7.5 32.5t25.5 16.5q4 0 16 -2t16 -2h5q14 0 20 0.5t12 5.5t6 15q0 18 -2 90q-1 7 -5.5 23t-4.5 20q0 27 53 27q21 0 30 -37.5t10 -84.5t1 -48q23 -7 66 -7l149 2q7 5 9 7q-1 28 -4.5 83t-4.5 78q7 7 25 7q19 0 41 -13q1 -12 12 -157q20 0 34 0.5t19 1.5 t9 1.5t6 0.5q8 0 14 -19.5t6 -30.5q0 -9 -1.5 -15.5t-5.5 -10.5t-7 -6.5t-10 -3t-10.5 -1t-12.5 0t-12 0.5h-29v-123q0 -4 3 -28t3 -28v-88q1 -1 3 -4t4 -4.5t6 -1.5q3 0 23 4t24 4q13 0 19.5 -5.5t7.5 -12.5t1 -19q0 -27 -11.5 -38t-39.5 -11q-4 0 -7 2t-7 2q-14 0 -17 -7 t1 -20t4 -14v-135q-19 -22 -46 -22q-24 0 -26 14q-2 22 -6 180q-15 0 -58.5 1.5t-77.5 0.5t-67 -6q-3 3 -8 -2q0 -22 5 -61.5t6.5 -61.5t-5.5 -59q-2 -4 -13.5 -7.5t-29 -7.5t-27.5 -8q-6 4 -14 41.5t-8 53.5v110h-58q-3 0 -14.5 -5t-15.5 -5q-21 0 -21 53q0 21 21 29.5 t49 10.5t33 5q-2 90 0 94q-3 17 -5.5 82t-11.5 90q-11 0 -42.5 -3t-33.5 -3q-26 37 -26 39zM229 547l11 -156h215v47q1 8 -1 32.5t-3 63.5t4 128h-226v-115z" />
<glyph unicode="$" horiz-adv-x="524" d="M37 666q0 69 48 136.5t128 108.5q-1 10 -2 23t-2 18.5t-1 13.5t-0.5 10t2 6t4 4t6.5 1t9 0.5t13 -0.5h16q12 0 19 -2.5t10.5 -10t4.5 -13t1.5 -18.5t1.5 -19q13 -3 40 -4t44 -3t31 -16t14 -41q0 -21 -7 -58.5t-20 -37.5q-4 0 -17.5 11t-17.5 13q-23 13 -53 13 q-5 0 -8.5 -1t-5.5 -2t-3 -4.5t-1.5 -5t-1 -6t-0.5 -6.5l-6 -192q0 -102 4 -129q1 -7 8 -12t19.5 -10.5t17.5 -8.5q26 -16 71 -51q42 -38 65.5 -86t23.5 -86q0 -75 -51.5 -134.5t-135.5 -62.5q-13 -11 -2 -53q-4 -8 -19.5 -16.5t-21.5 -8.5q-19 0 -24.5 16t-6 36t-6.5 24 q-13 0 -42 4t-31 4q-3 -1 -4 -2q-2 -2 -3 -2q-3 0 -17 5.5t-32.5 12t-29.5 9.5v10q0 7 6.5 39.5t13.5 48.5q1 6 12.5 11t18.5 5q3 0 20.5 -6.5t41 -16t38.5 -13.5q6 5 7 14t-1 22.5t-2 18.5q0 15 -2 47.5t-2 34.5v133q0 3 -28 24.5t-58.5 45.5t-34.5 32q-34 54 -46.5 90.5 t-12.5 92.5zM137 639q0 -42 12.5 -65t59.5 -76l4 256q-4 4 -12 4q-64 -64 -64 -119zM289 221q0 -2 2 -24.5t4.5 -52t3.5 -46.5h33q29 0 49 31.5t20 58.5q0 34 -37.5 86.5t-72.5 69.5q-2 -6 -2 -41v-82z" />
<glyph unicode="%" />
<glyph unicode="&#x26;" horiz-adv-x="618" d="M39 217q13 -3 16 -6v-8q0 -13 -3 -44t-2.5 -52.5t7.5 -34.5q16 5 21.5 29.5t5 50t8.5 46.5t31 21h18q7 -66 25 -115q26 6 31 9q0 3 2 10.5t2 11.5q0 2 -5 21.5t-10.5 43.5t-7.5 36q-17 117 -39 346q0 6 -12.5 23.5t-20.5 17.5q-17 0 -28.5 -76.5t-11.5 -102.5v-102 q0 -3 -2 -19.5t-4 -37.5t-3 -33q-14 -20 -18 -35zM63 8q0 41 68 41q4 0 7 -2t7 -2q5 0 6 2l1 2q19 6 208 34t205 28q9 0 23 -17v-14q-20 -9 -48.5 -16.5t-50.5 -10.5t-61.5 -8t-58.5 -8q-38 -5 -108.5 -15.5t-121 -18t-53.5 -7.5h-18q-5 5 -5 12zM80 659q0 5 3 12.5t6.5 12 t4.5 4.5q65 8 172 19.5t184 19.5t82 8q6 0 14.5 -10t10.5 -18v-11q-212 -33 -473 -47q-4 4 -4 10zM98 256l13 197q8 -36 12.5 -68t8 -71t5.5 -58h-39zM213 498q0 -70 7.5 -196t17.5 -173q11 0 17.5 2t8.5 6.5t2.5 7t0 8.5t-0.5 7l-14 276q0 29 6 56q21 -60 48 -184.5 t48 -180.5h29q15 26 17 62.5t-3.5 82.5t-5.5 60v86q0 4 5 82t5 82q0 34 -22 41q-16 -23 -20 -62t-4 -109.5t-5 -123.5q-5 17 -18 52t-17 48q-1 5 -6.5 29.5t-11 47t-12.5 47t-15 39.5t-16 15q-41 0 -41 -108zM424 150v458q3 12 12 21.5t19 9.5q120 0 120 -307 q0 -71 -25 -113.5t-112 -99.5q-5 4 -7.5 9.5t-4 12t-2.5 9.5zM463 297q0 -56 10 -111q33 31 49.5 58t16.5 65q0 39 -17 151.5t-45 112.5h-14v-276z" />
<glyph unicode="'" horiz-adv-x="163" d="M42.5 918q-0.5 27 1 58.5t8 51t16.5 19.5q18 0 37.5 -12t19.5 -29l1 -7q1 -7 2.5 -18t3 -25t2 -29.5t0 -30.5t-3 -29.5t-7.5 -24.5q-9 -17 -43 -17q-17 0 -35 11l-1 28q-1 27 -1.5 54z" />
<glyph unicode="(" />
<glyph unicode=")" />
<glyph unicode="*" />
<glyph unicode="+" />
<glyph unicode="," horiz-adv-x="182" d="M25 -98q0 30 19.5 110t43.5 80q18 0 37.5 -11t19.5 -28q0 -2 -5.5 -26.5t-16.5 -60t-21 -56.5q-8 -19 -43 -19q-16 0 -34 11z" />
<glyph unicode="-" />
<glyph unicode="." horiz-adv-x="192" d="M45 45q0 20 13 33.5t32 13.5q23 0 40 -16t17 -39q0 -19 -21 -30t-34 -11q-22 0 -34.5 16t-12.5 33z" />
<glyph unicode="/" />
<glyph unicode="0" horiz-adv-x="446" d="M37 461v180q0 1 2 16.5t3.5 38t0.5 43.5q-2 122 51.5 199.5t157.5 77.5q39 0 68.5 -26.5t45 -63t24.5 -84.5t11 -79.5t2 -60.5v-75l13 -199v-221q0 -76 -50.5 -138.5t-132.5 -62.5q-74 0 -124 70q-22 33 -47 174.5t-25 210.5zM114.5 482.5q0.5 -24.5 1.5 -71t5 -81 t10.5 -79t17.5 -76t25.5 -60t36 -43.5t47.5 -15q15 0 27.5 11t20.5 30t14.5 40.5t10.5 45.5t6 42t3.5 33.5t1.5 16.5q-4 123 0 143v1q-8 50 -8 65v107q0 5 -4.5 46.5t-12.5 99.5t-14 93q-11 67 -45 101q-31 0 -35 -2q-108 -52 -108 -352q0 -1 -0.5 -36t0 -59.5z" />
<glyph unicode="1" horiz-adv-x="212" d="M37 889v96q10 0 30 1t23 1q42 0 58.5 -5.5t21.5 -21t3 -43.5t3 -73l-12 -479q-10 -120 -6 -197.5t-1.5 -113.5t-33.5 -36q-26 0 -33.5 8t-9 32t-6.5 38l20 711q1 33 -5.5 44.5t-23.5 18t-28 19.5z" />
<glyph unicode="2" horiz-adv-x="397" d="M29 817q0 3 8 20.5t10 24.5q25 76 57 114t80 38q51 0 90.5 -26t60 -65.5t30.5 -79t10 -75.5q0 -145 -68 -348t-147 -330q9 -6 71 -6q4 0 40 5t40 5q32 0 43 -10t11 -39q0 -9 -11.5 -22t-23.5 -13h-119q-4 0 -50 -5t-50 -5q-58 0 -58 31q0 3 22 49.5t48.5 102t34.5 75.5 q4 13 21 46.5t22 49.5q31 93 66.5 231.5t35.5 205.5q0 55 -34 99t-83 44q-24 0 -39.5 -18.5t-20 -40t-8.5 -52.5t-7 -41q-10 -3 -46 6.5t-36 28.5z" />
<glyph unicode="3" horiz-adv-x="495" d="M45 864q0 9 29 46.5t39 45.5q27 23 70.5 39.5t74.5 16.5q102 0 152.5 -71.5t50.5 -170.5q0 -36 -13 -81.5t-46 -93.5t-78 -69q102 -63 102 -245q0 -118 -51.5 -198.5t-149.5 -80.5q-80 0 -124 41.5t-44 118.5v19t3 21t8.5 23.5t17.5 15t29 7.5q11 0 26 -6t15 -9 q0 -1 2 -33.5t5.5 -55.5t20 -45.5t43.5 -22.5q31 0 53.5 29.5t31.5 71t12.5 68.5t3.5 40q0 53 -17.5 91.5t-38 54t-38 26.5t-17.5 16q0 3 1.5 15l4 32t4.5 33q2 1 11 10q41 9 70.5 47t41.5 82t12 88q0 38 -20 68.5t-57 30.5q-35 0 -63 -15t-41.5 -33.5t-26 -33.5t-21.5 -15 q-8 0 -48 36t-40 46z" />
<glyph unicode="4" horiz-adv-x="522" d="M29 225q0 15 22 81t33 93q7 19 24.5 66t24.5 67q10 29 36 103.5t40 115t34 105t36 121.5q2 5 9 9.5t13 4.5q54 0 70 -12.5t16 -65.5v-546q0 -2 -3 -22.5t-1 -33t12 -12.5q25 0 84 6q10 -50 10 -67q0 -12 -10 -29h-86q-11 -27 -13.5 -59t-0.5 -55t1.5 -43t-11 -30 t-35.5 -10q-5 0 -20 5.5t-21 9.5q-1 23 -0.5 87.5t-1.5 88.5q-11 6 -53 6q-39 0 -83.5 -5t-52.5 -5q-4 0 -25.5 -2t-25.5 -2q-12 0 -17 11t-5 19zM150 299l141 -2v416z" />
<glyph unicode="5" horiz-adv-x="573" d="M41 608q6 30 6 35v86l4 182q-11 42 4 52t64 10h409q4 -7 8.5 -29.5t4.5 -32.5q0 -17 -23 -24.5t-41 -7.5l-330 8q-5 0 -7.5 -3t-3 -8.5t-0.5 -10t0.5 -11.5t0.5 -10q-3 -89 -4 -94q1 -1 1.5 -3t1.5 -3t5 -1l37 9q36 10 75.5 20t47.5 10q54 0 95 -21t63.5 -51.5 t36.5 -73.5t18 -78t4 -73q0 -86 -4 -129q-1 -23 -2.5 -72.5t-4 -75.5t-9 -62t-21 -59.5t-37.5 -39.5q-15 -12 -62 -29.5t-69 -17.5h-30q-18 0 -68.5 13.5t-56.5 17.5q-18 12 -51 51.5t-33 60.5q0 17 28 31t41 14q2 0 10 -11t22 -27t32.5 -32t45.5 -27t56 -11q31 0 65.5 38.5 t37.5 76.5q4 39 4 131q0 381 -160 381q-35 0 -99.5 -37.5t-60.5 -75.5l-6 -2q-6 -2 -10 -2q-17 0 -35 18z" />
<glyph unicode="6" horiz-adv-x="573" d="M41 346.5v57.5v4v4v4q0 557 246 557q53 0 96 -19q27 -14 77 -66.5t50 -62.5q0 -6 -15.5 -22.5t-31.5 -29.5t-17 -13q-9 0 -23 18.5t-29 40t-42.5 40t-60.5 18.5q-38 0 -66 -33t-41 -81t-18.5 -85.5t-5.5 -61.5v-26q1 -1 1.5 -3t1.5 -2.5t5 -0.5q1 0 7 3.5t18 8t27.5 9 t39 8t49.5 3.5q105 0 170.5 -65t65.5 -158v-112q0 -111 -86.5 -201t-200.5 -90q-35 0 -64.5 9.5t-50.5 23.5t-37.5 39t-27.5 46.5t-18.5 57t-11 59t-5.5 63t-2 59zM164 385q0 -17 5 -58.5t16 -103t37 -105.5t61 -44q47 0 80 32.5t47.5 82t20 87t5.5 68.5q0 34 -3 59.5 t-13 54.5t-32.5 44.5t-57.5 15.5q-46 0 -106 -39t-60 -94z" />
<glyph unicode="7" horiz-adv-x="385" d="M43 850v86h154q4 0 59 7t59 7q8 0 30 -8t22 -18q0 -32 -25 -134.5t-33 -123.5q-85 -336 -174 -654q-35 -10 -51 -10q-4 0 -7 1.5t-5.5 3t-4.5 4.5t-3 5l-2 4l-1 3l207 778v24q-15 -1 -35.5 -1h-39.5l-19 1q-4 0 -44.5 -5t-43.5 -5q-10 0 -25 12t-18 23z" />
<glyph unicode="8" horiz-adv-x="407" d="M37 745q0 38 7.5 75.5t24.5 78t52.5 65.5t85.5 25q45 0 78.5 -28t50.5 -70t25 -81t8 -71q0 -28 -4 -56t-10.5 -50t-14 -42.5t-15 -35.5t-14 -26t-10.5 -17l-4 -6q0 -2 8 -11.5t18.5 -21.5t14.5 -20q3 -4 13.5 -35.5t21 -75.5t10.5 -70q0 -1 -4 -44.5t-4 -63.5 q-3 -61 -59.5 -111.5t-112.5 -50.5h-21q-32 0 -54.5 22t-31.5 55t-12.5 56.5t-3.5 40.5q0 6 3 41t9 85t12 81q3 13 10.5 36t14 41t6.5 21t-7.5 13t-18 23t-15.5 20q-20 34 -38.5 105.5t-18.5 102.5zM127 762q0 -14 3.5 -41.5t11 -63t23.5 -61t36 -25.5q18 0 36 23t26.5 41 t12.5 31q7 44 7 71q0 47 -17.5 100t-44.5 81q-27 2 -47 -14.5t-29.5 -43.5t-13.5 -51.5t-4 -46.5zM160 213q0 -12 1 -27.5t4 -46.5t12 -51t22 -20q31 0 53.5 26.5t32.5 64.5t14 65.5t4 43.5q0 67 -18 88q-6 7 -14 18t-13 17.5t-11.5 13.5t-12 10t-11.5 3q-31 0 -47 -78.5 t-16 -126.5z" />
<glyph unicode="9" horiz-adv-x="417" d="M41 676q0 287 174 287q6 0 18 -6t22.5 -13t19.5 -13.5t10 -6.5q2 5 2 12.5t-1 16.5t-1 14q17 4 75 0l19 -764v-176q0 -9 -13 -17t-18 -8q-19 0 -43 8q-4 61 -4 187v102q0 12 2.5 35t2 47t-6.5 57q-55 -51 -79 -60q-11 -5 -21 -5q-4 0 -8.5 -2t-8.5 -2q-27 0 -60.5 32.5 t-45.5 57.5q-35 71 -35 217zM123 692q0 -56 13 -135.5t38 -95.5q33 -5 60 29.5t39 75.5t12 69q0 82 -19.5 153t-56.5 97h-8q-23 0 -40 -27.5t-24.5 -65.5t-10.5 -64t-3 -36z" />
<glyph unicode=":" />
<glyph unicode=";" />
<glyph unicode="&#x3c;" />
<glyph unicode="=" />
<glyph unicode="&#x3e;" />
<glyph unicode="?" horiz-adv-x="485" d="M39 760q0 10 14.5 45t29 65t15.5 31q64 74 160 74q46 0 81 -17.5t54.5 -43t31.5 -61.5t15.5 -65.5t3.5 -62.5q0 -57 -36.5 -125t-88.5 -96q-11 -7 -11 -43t5 -76.5t-6 -73t-43 -32.5q-3 0 -9 2t-9 2q-1 32 -8 133.5t-7 109.5t18 14.5t40 13.5t28 13q27 31 39.5 76.5 t12.5 79.5q0 16 -4.5 43t-14 60t-30 56t-46.5 23q-73 0 -105 -40.5t-40 -129.5q-18 -6 -25 -6q-16 0 -40.5 9t-24.5 22zM238 23q0 17 13 30t28 13q19 0 35.5 -14t13.5 -42q-26 -20 -45 -20q-16 0 -30.5 9.5t-14.5 23.5z" />
<glyph unicode="@" />
<glyph unicode="A" horiz-adv-x="583" d="M41 45v420q0 15 10 158q10 161 22 215q30 133 130 168q41 14 96 14q244 0 244 -418l-23 -461v-96q0 -19 -5 -30.5t-16.5 -16t-20.5 -5.5t-27 -1h-3.5h-3.5q-10 0 -24 9t-14 19v154q0 4 2 60.5t2 60.5v278h-228l-14 -368q0 -4 7 -83t7 -83q0 -5 -6 -13.5t-12 -9.5 q-17 -1 -54.5 -5.5t-41.5 -4.5q-12 0 -19.5 13.5t-7.5 25.5zM190 721q0 -17 7 -23h157q27 0 49 13q-4 11 -10 40t-12.5 52t-17.5 47.5t-31 38.5t-47 14q-31 0 -59.5 -40t-28.5 -68q0 -9 -3.5 -33t-3.5 -41z" />
<glyph unicode="B" horiz-adv-x="542" d="M55 84v877q2 8 15 13t42 6.5t44.5 2t54.5 0.5q65 0 117 -15.5t89.5 -58.5t37.5 -110q0 -74 -43 -122t-140 -89q91 -33 155.5 -121t64.5 -174q0 -43 -16 -91t-53.5 -91.5t-88.5 -57.5q-206 -47 -242 -47q-3 0 -12.5 3t-13.5 3q-1 14 -6 41.5t-5 30.5zM203 725 q31 9 50 33.5t19 50.5q0 18 -9.5 33.5t-31.5 15.5h-28v-133zM209 256q0 -42 12 -96q62 11 92.5 51t30.5 90q0 54 -37 97.5t-98 58.5v-201z" />
<glyph unicode="C" horiz-adv-x="419" d="M39 291q0 79 14 182q20 127 60 232q4 12 44 75t99 130t96 67q4 0 27 -14q2 -13 7 -33t8 -33.5t3 -17.5q0 -1 -18 -25t-42.5 -58.5t-37.5 -54.5q-71 -115 -94 -204q-2 -9 -10 -39t-11 -45q-3 -11 -10.5 -71.5t-7.5 -78.5q0 -78 41 -128t119 -50q4 0 9 1t9 1 q26 0 37.5 -46.5t11.5 -74.5q0 -6 -10.5 -14t-15.5 -8h-23q-4 0 -18 3t-34.5 8t-31.5 7q-3 1 -20 2.5t-23 3.5q-47 19 -80.5 46t-52 54t-29 61.5t-13.5 61t-3 60.5z" />
<glyph unicode="D" horiz-adv-x="542" d="M61 4l15 879q0 13 -2 36.5t-2 34.5q41 15 43 15q105 0 182.5 -37.5t119.5 -102t61.5 -140t19.5 -163.5q0 -101 -32.5 -236.5t-76.5 -178.5q-57 -54 -128.5 -88.5t-125.5 -34.5q-3 0 -25 -1t-26 -1q-8 0 -15.5 6t-7.5 12zM213 123q34 9 59 43.5t38.5 77t21.5 96.5t10 91.5 t2 72.5q0 42 -4.5 83t-16 91t-37.5 86t-63 47l-4 -178l-6 -180v-330z" />
<glyph unicode="E" horiz-adv-x="454" d="M41 27q0 10 2 20.5t2 30.5v401l2 359q-2 25 -2 49q0 36 4 69q27 4 131 13l180 4q13 0 21.5 -17t12 -43.5t4.5 -42.5t1 -28q-2 -2 -19 -8.5t-24 -6.5l-139 9q-6 0 -13.5 0.5t-10.5 0.5t-6.5 -1t-4.5 -2t-2.5 -5.5t-1.5 -10v-15.5q0 -2 1 -18t2 -37t1 -35q6 -4 15 -6 t15 -2.5t21 0.5t21 0q113 -1 130 -6q28 -7 33 -36q3 -16 3 -57q0 -16 -9 -32.5t-26 -16.5q-7 0 -53 3.5t-51 4.5h-103v-413h168q27 0 51 -9q4 -10 8.5 -53t4.5 -65q0 -15 -2 -23.5t-9 -12t-11 -4.5q-2 0 -6.5 -0.5t-11.5 0.5q-14 1 -20 1q-4 0 -48 3t-48 3h-195 q-18 23 -18 35z" />
<glyph unicode="F" horiz-adv-x="454" d="M51 29v641q0 6 4 66q3 60 5 110q0 17 1 33q0 34 -2 69q11 19 93 20h254q-2 -5 -2 -17.5t1 -25.5t1 -14q0 -19 -6 -32.5t-11.5 -20.5t-22.5 -10.5t-23 -4t-30.5 0t-29.5 0.5q-57 0 -86 2q-9 -9 -13 -62v-104h164q5 -4 12 -30t7 -34q0 -67 -27 -67q-30 0 -152 10 q-6 -37 -6 -219l6 -293q-1 -22 -3 -34t-11 -22.5t-24 -10.5q-58 0 -78.5 8t-20.5 41z" />
<glyph unicode="G" horiz-adv-x="514" d="M37 375q0 45 8.5 113t34 159t62.5 166.5t102.5 128.5t146.5 53q22 0 29 -10q2 -14 5.5 -40.5t6 -45.5t2.5 -22q0 -10 -6.5 -15t-16 -6t-10.5 -2q-36 -19 -60 -41.5t-52 -67.5q-35 -57 -59.5 -149t-24.5 -170q0 -80 21 -145t89 -121q11 6 11 37l-4 190q-9 6 -23 6 q-4 0 -23.5 -3t-23.5 -3q-6 0 -10.5 5t-6.5 13t-3.5 17.5t-1.5 20.5v19t0.5 16t0.5 9q42 21 52 21h174q7 -1 10.5 -9.5t5 -25t2.5 -20.5l4 -293q-1 -12 -1 -35q0 -38 3 -109q-5 -12 -42.5 -18t-73.5 -6q-75 0 -133.5 23.5t-94.5 60.5t-59 88.5t-32 102.5t-9 108z" />
<glyph unicode="H" horiz-adv-x="540" d="M35 963q30 12 35 12q4 0 16 -3t16 -3q3 0 8 3t9 3q7 0 29 -4t26 -8q17 -43 17 -140q0 -38 -3 -84q0 -13 2.5 -45t2.5 -51q23 -6 67 -6q79 0 90 4q15 6 17 36v25v101l-1 35q-2 36 -2 68v22q0 22 1 43q20 8 43 8q10 0 23 -2.5t29.5 -8t25 -18t3.5 -30.5l17 -877 q-1 -4 -2 -16t-2 -17q-9 -11 -54 -19.5t-69 -8.5q-14 0 -21.5 9.5t-7.5 20.5v19l12 311v178q-14 1 -32 1q-52 0 -131 -11v-250q0 -3 3 -27t3 -28v-84q0 -4 4 -40t4 -40q0 -11 -5.5 -23t-17.5 -12h-79h-24t-18 2t-15 6.5t-7 12t-3 20.5t5 31l-8 799q0 5 -2 37t-4 49z" />
<glyph unicode="I" horiz-adv-x="245" d="M39 979q6 6 43.5 11t50.5 5q28 0 36 -10t11 -41l-4 -764q2 -25 4 -75.5t4 -75.5q-4 -2 -43.5 -11.5t-48.5 -9.5q-21 0 -31.5 13.5t-12 25t-1.5 31.5v657q0 170 -8 244z" />
<glyph unicode="J" horiz-adv-x="346" d="M45 12v111q69 23 94 67q23 42 23 101v10l4 639q-6 21 -6 39q0 7 10 12q11 -1 32 0t39.5 2.5t20.5 1.5q39 0 39 -51q-1 -32 -1 -61q0 -48 3 -90l-4 -277l6 -178q0 -269 -117 -309q-3 -1 -16.5 -7t-22.5 -9.5t-23.5 -7t-27.5 -3.5h-30q-5 0 -13.5 5t-9.5 5z" />
<glyph unicode="K" horiz-adv-x="446" d="M20 53q0 21 2.5 51.5t5 83t3.5 253.5q0 100 0.5 231.5t-0.5 292.5q4 6 13.5 12t14.5 6q4 0 18.5 -5t18.5 -5t24.5 1t24.5 1q11 0 17.5 -15.5t7.5 -40t1 -46t-1.5 -43.5t-1.5 -23l-4 -213l1 -1l5 -1q30 0 52 35t31.5 82.5t14 80.5t4.5 44v137q0 7 9 16q12 1 37.5 4.5 t29.5 3.5q23 0 36.5 -5t19 -17.5t7 -23t1.5 -31.5q0 -312 -109 -379q-35 -21 -86 -41q42 -7 73.5 -19.5t53 -25.5t35.5 -35t21.5 -38.5t11 -47.5t4 -49.5t0.5 -55.5v-4q0 -48 -13 -180q-1 -12 -18.5 -24.5t-30.5 -12.5h-73q-27 0 -27 14q0 16 4 62q3 31 3 52q0 10 -1 18 v64.5t-1.5 64.5t-22 56t-60.5 38q-9 -93 -9 -161q-1 -28 1 -52q4 -60 5 -96q0 -13 -1 -22q-2 -36 -25 -36q-25 0 -118 19q-9 13 -9 26z" />
<glyph unicode="L" horiz-adv-x="352" d="M41 14l18 910l-2 12q-2 11 -2.5 20.5t5 18t18.5 8.5q18 0 43 1q17 1 26 1q5 -1 9 -1q10 0 24.5 -1t19 -5.5t11.5 -11t8 -20t2.5 -30t1.5 -42.5v-126q0 -28 -8 -64l4 -422q1 -5 -1 -27.5t0.5 -38.5t14.5 -16q4 0 34 3t34 3q8 0 13.5 -23t7.5 -55t3 -51.5t1 -27.5 t-10.5 -18t-20.5 -11q-157 -18 -217 -18q-3 0 -6 0.5t-5.5 1t-5 2t-3.5 2t-3 3t-3 3.5t-3 4.5t-2.5 4.5t-2.5 5.5t-3 5.5z" />
<glyph unicode="M" horiz-adv-x="1048" d="M18 -2v25q0 33 25 170q6 41 45.5 272t54.5 326l5 23q6 24 6 40l2 22l6 42t12 39t21 18q26 0 78 -8.5t53 -12.5q21 -76 70.5 -289.5t88.5 -342.5q5 0 7 4q116 344 190 548q4 11 16.5 41.5t14.5 40.5q18 13 106 13q13 0 22.5 -13.5t16 -36.5t10.5 -44.5t7.5 -47.5t5.5 -36 q21 -116 26 -142q23 -158 25 -170q14 -87 47 -272q4 -20 16 -66.5t21.5 -84t9.5 -40.5q0 -39 -84 -39q-50 0 -74 19q-10 46 -24.5 107.5t-21 98.5t-11.5 85l-59 354l-4 -4q-44 -119 -95.5 -296t-83.5 -325q-6 -4 -64.5 -17t-70.5 -13h-26q-53 187 -138 551q-25 -76 -54 -260 t-48 -271q-3 -8 -29 -8q-11 0 -43 2h-24q-24 0 -54 -2z" />
<glyph unicode="N" horiz-adv-x="614" d="M35 12q0 4 3 64.5t3 64.5v832q9 14 70 14q33 0 63 -11t53.5 -27.5t47.5 -45t40 -53t35.5 -62.5t30.5 -62.5t28 -64t25 -57.5q2 5 2 37l-20 320q0 26 39 26q3 0 15.5 -1t30 -2.5t29.5 -2.5q1 -4 8.5 -16t8.5 -17q2 -29 5.5 -78l6 -84t2.5 -38v-127q0 -43 6 -89l13 -491 q-3 -15 -16.5 -19t-44 -7.5t-54.5 -12.5q-29 92 -75.5 283t-92 318t-115.5 222q-1 1 -2.5 0.5t-2.5 -3t-1 -5.5l-6 -624q0 -15 1 -41.5t1 -28.5q0 -8 0.5 -28t0 -26t-1.5 -21t-4 -19.5t-8 -14.5t-13 -13t-19.5 -7.5t-27.5 -6t-36 -1.5q-13 0 -20.5 7.5t-7.5 18.5z" />
<glyph unicode="O" horiz-adv-x="651" d="M35 395v135q0 3 4 26t9 53t7 46q11 68 37.5 131.5t65.5 116t95 84t120 31.5q49 0 101.5 -50t76.5 -102q76 -180 76 -411q0 -66 -9 -127t-33.5 -126t-62.5 -112t-102.5 -77.5t-147.5 -30.5q-54 0 -97.5 36t-68.5 87t-42 111.5t-23 105.5t-6 73zM168 446q0 -18 1 -44 t8.5 -82t20.5 -99t41 -77.5t66 -34.5q29 0 64 25t55 56q45 68 58.5 133.5t13.5 149.5q0 85 -17.5 192.5t-52.5 151.5q-1 1 -14.5 19t-21 26.5t-21.5 18.5t-25 10q-40 0 -75.5 -58t-56 -137t-32.5 -148t-12 -102z" />
<glyph unicode="P" horiz-adv-x="448" d="M33 965q9 11 59 18.5t70 7.5q131 0 195.5 -62t64.5 -190q0 -80 -40 -146t-132 -99q-9 -2 -26.5 -9.5t-24.5 -9.5h-29q-3 -9 -6 -29.5t-4 -25.5l4 -238q10 -117 10 -141q0 -22 -10 -39q-13 -2 -35.5 -6.5l-40 -8t-20.5 -3.5q-12 0 -20.5 12.5t-10.5 28.5l4 833 q-2 17 -4 53.5t-4 53.5zM166 602h12q30 0 52.5 25.5t31 53t8.5 48.5q0 16 -3.5 33.5t-13 40.5t-31.5 37q-18 11 -44 11q-6 0 -12 -1v-248z" />
<glyph unicode="Q" horiz-adv-x="671" d="M39 410q0 2 1 4.5t1.5 8.5t1.5 17t0.5 33.5t-2.5 54.5v12q0 38 11 91q12 61 40 129t66.5 126t96 96t122.5 38q214 0 256 -420q1 -11 2 -16l2 -185q-4 -42 -21 -131q-3 -13 -12.5 -34.5t-16.5 -38t-7 -19.5q0 -12 35.5 -68t48.5 -69q64 -64 102 -76q4 -2 8 -2 q10 -10 10 -14q0 -16 -33.5 -39t-43.5 -23q-51 0 -121 59t-99 111q-85 -49 -161 -49q-116 0 -234 191q-17 31 -35 103t-18 110zM172 500q0 -21 9.5 -74.5t28.5 -122t56 -119.5t82 -51q16 0 44 15.5t28 35.5q0 18 -34.5 58.5t-47.5 46.5q-9 5 -25.5 8.5t-26.5 6.5t-10 7 q0 18 21 60.5t45 42.5q10 0 22.5 -3t25 -8.5t23.5 -11t24 -14t19.5 -13t17 -12t11.5 -8.5q15 68 15 160q0 13 -2 49.5t-10 99t-20.5 116.5t-35.5 94t-53 40q-46 0 -84 -36.5t-60 -87.5t-37 -111t-20.5 -102.5t-5.5 -65.5z" />
<glyph unicode="R" horiz-adv-x="561" d="M25 133l20 490l-2 321q-8 20 -8 37q22 18 35 18q78 2 92 2q41 0 80 -4.5t87 -20t82.5 -41t58.5 -72t24 -107.5q0 -29 -8.5 -56t-21.5 -46.5t-29 -36t-32 -27.5t-29 -19t-22 -12l-8 -4q0 -1 10 -15.5t22.5 -35.5t16.5 -35q3 -9 16 -74t29 -102q18 -46 44 -92.5t42.5 -71.5 t16.5 -27q0 -19 -17 -69.5t-32 -50.5q-68 0 -124 56.5t-73 145.5q-13 67 -49.5 190.5t-63.5 133.5l-12 -201v-280q0 -10 -11 -15.5t-16 -5.5h-94q-14 21 -16 31q-8 39 -8 96zM186 651l19 -4q119 43 119 105q0 34 -38 64q-35 28 -70 28h-5h-25q3 -4 3 -14.5t-1.5 -22.5 t-1.5 -14v-142z" />
<glyph unicode="S" horiz-adv-x="495" d="M20 33q3 10 15.5 63t30.5 84q72 -20 96 -20q58 0 111 38.5t53 100.5q0 44 -21 82t-52.5 64t-68 55t-68 55t-52.5 64t-21 81q0 60 29 122.5t84 115.5l28 22q27 23 57 44.5t40 21.5q23 0 47 -50t24 -67q-66 -21 -117 -76t-51 -112q0 -32 29 -63.5t70 -63t82.5 -69.5 t70.5 -98t29 -134q0 -130 -83.5 -212.5t-209.5 -82.5h-29q-3 0 -123 35z" />
<glyph unicode="T" horiz-adv-x="645" d="M29 930q0 19 8 35l377 -2q157 0 196 2q8 -24 8 -47q0 -18 -0.5 -26.5t-3 -21.5t-8 -19t-16 -10.5t-25.5 -4.5h-157v-721q0 -4 6 -42t6 -42q0 -16 -14 -25q-17 0 -56.5 -5t-40.5 -5q-4 0 -11 2.5t-16.5 6.5t-13.5 5q-12 24 -12 105v585v44v13q0 51 -7 61q-8 12 -53 12h-10 h-19q-66 0 -124 6q-4 11 -9 48t-5 46z" />
<glyph unicode="U" horiz-adv-x="518" d="M43 565l6 228q7 30 7 59v10q-2 33 -5.5 58t14 40t62.5 15q4 0 14 -3t15 -3l-6 -361l10 -270q0 -23 6.5 -58.5t19 -75t36 -67.5t52.5 -28q68 0 86 165l2 279q10 74 10.5 184t6 165.5t29.5 55.5q2 0 29 -3t35 -3v-1q4 -5 5 -134l-10 -459q-2 -18 1 -47t3 -32 q0 -21 -5.5 -55.5t-19 -79t-33.5 -82.5t-54 -64.5t-74 -26.5h-15q-49 0 -86 13t-60.5 38.5t-38.5 54.5t-22.5 71t-10 76.5t-3.5 82.5z" />
<glyph unicode="V" horiz-adv-x="495" d="M33 971q6 4 42.5 7t47.5 3q34 0 58.5 -126.5t49 -322.5t43.5 -276q26 83 58 373q1 16 8.5 55.5t9.5 56.5l1 21q1 21 2.5 39t4.5 45.5t7 49t9 42t12.5 32t16.5 11.5h8q18 0 26.5 -0.5t19.5 -4.5t15.5 -14.5t4.5 -27.5q0 -2 -9 -58.5t-22 -138t-20 -125.5 q-9 -55 -30 -185.5t-39 -234.5t-35 -184q-10 -3 -19.5 -6.5t-14 -5.5t-12.5 -3t-18 -1h-33q-45 0 -47 14q-52 263 -88 578z" />
<glyph unicode="W" horiz-adv-x="786" d="M37 231l16 545q4 25 4 98v97q11 -1 21.5 -0.5t24.5 1.5t16 1q35 0 44 -16.5t9 -59.5v-586q0 -17 3 -43t10 -60.5t22.5 -58.5t36.5 -24q12 0 21 13.5t14.5 36t8 42t4.5 42t3 26.5l4 311l16 291q0 65 10.5 81.5t43.5 16.5q23 0 45 -10t22 -27q0 -2 -4 -26t-4 -29v-76 l-12 -551q0 -45 32 -93t82 -48q24 0 40 63.5t21 117.5t5 77v82q0 1 4.5 45.5t10 105t7.5 97.5q5 121 5 202v43q61 7 106 7q7 0 12.5 -2t8 -4.5t3.5 -7.5q2 -9 2 -11l-1 -10l-25 -301q0 -31 -22 -344q-11 -148 -35 -199q-40 -80 -154 -80q-107 0 -156 60q-78 -52 -89 -56 t-64 -4q-1 0 -12 -1t-22.5 -1t-18.5 2q-7 1 -18 12.5t-19 12.5q-24 1 -42 24.5t-25.5 58.5t-11 64t-3.5 53z" />
<glyph unicode="X" horiz-adv-x="448" d="M33 37q0 23 52 207.5t75 257.5l-117 483q4 12 30 17.5t42 5.5t43 -9q17 -33 29 -74t24.5 -95.5t19.5 -79.5q16 42 42.5 132t37.5 117q3 7 24.5 14t31.5 7q7 0 32 -11t29 -20l-141 -495q50 -208 92 -355q2 -9 15.5 -44.5t13.5 -39.5q0 -8 -9 -21.5t-16 -13.5 q-4 0 -12.5 3.5t-12.5 3.5t-26.5 -8.5t-26.5 -8.5q-9 0 -24 43t-33.5 109.5t-22.5 79.5q-21 -33 -35.5 -95t-26 -102.5t-28.5 -40.5q-6 0 -37.5 1t-48.5 1q-8 0 -12 12.5t-4 18.5z" />
<glyph unicode="Y" horiz-adv-x="536" d="M37 726v47v5v4v191q8 5 48 14.5t48 9.5q21 0 27.5 -43t6.5 -104t3.5 -122.5t25 -104.5t64.5 -43q41 0 69 30.5t40 77.5t17 90.5t6 82.5t1 40q1 3 1.5 34.5t8.5 43.5q11 20 60 20q25 0 39 -16t14 -37l-27 -409l-4 -369q1 -7 1 -13q0 -40 -22 -74q-25 -39 -66 -61.5 t-84 -34.5t-81 -12q-49 0 -84.5 15.5t-54.5 38.5t-30 58t-14 65t-3 69q0 3 2.5 46.5t6 104t5.5 89.5q12 12 23 12q4 0 14.5 -3t14.5 -3q3 0 13.5 3t14.5 3q7 0 12 -0.5t8 -3t5 -4t3 -6t1 -5v-6.5v-6v-78q0 -32 3.5 -73t12 -93.5t28.5 -87t48 -34.5q51 0 72 39 q20 35 32.5 157.5t12.5 165.5v43q-3 1 -25.5 -1.5t-49 -5.5t-34.5 -3q-38 0 -69.5 6.5t-54 15.5t-40.5 26.5t-29.5 32t-19.5 40t-11.5 42.5t-6 47.5t-2.5 46.5z" />
<glyph unicode="Z" horiz-adv-x="555" d="M39 893q0 19 7 59.5t20 40.5l446 -6q6 0 12 -13t6 -18q0 -54 -301 -829q8 -6 45 -6q4 0 105.5 3t105.5 3q5 0 12 -7t7 -11v-105h-252q-4 0 -71 -5t-72 -5h-10h-5h-4q-3 0 -12 4t-25 12v13l328 831q-96 15 -254 15q-35 0 -74 -1q-7 0 -10.5 9t-3.5 16z" />
<glyph unicode="[" />
<glyph unicode="\" />
<glyph unicode="]" />
<glyph unicode="^" />
<glyph unicode="_" />
<glyph unicode="`" />
<glyph unicode="a" horiz-adv-x="501" d="M33 240q0 2 1 8t3.5 26.5t5.5 53.5q2 4 7 31t12 59.5t21 71t31.5 68.5t46.5 49q25 16 55 16h9q67 -3 133 -60q7 19 7 76q14 4 49 4q53 -6 53 -33q1 -25 1 -76v-56q0 -94 -1.5 -184t-2.5 -165t-1 -76q-1 -10 -6 -17.5t-11 -11t-16.5 -5t-16 -2t-17 0t-13.5 0.5q-6 2 -18 2 q-4 0 -15.5 16.5t-15.5 16.5q-4 -3 -11 -7t-26 -15t-34.5 -19t-30.5 -14q-13 -6 -19 -6h-2q-3 0 -13 1t-14 1q-43 4 -75 31.5t-49 66.5q-16 40 -22 78q-5 29 -5 55v15zM159 212.5q0 -11.5 3 -30t8 -30.5t16 -22t27 -11h5q38 0 82 43q47 46 50 90q2 7 5 36q3 28 5 68v18 q0 28 -4 50q-4 24 -44.5 58t-65.5 36h-1q-14 0 -28 -25q-14 -26 -24 -64t-17 -76t-12 -67l-4 -28q0 -1 -0.5 -17.5t-0.5 -28z" />
<glyph unicode="b" horiz-adv-x="548" d="M37 1036q0 17 35 26t57 9q28 -1 35 -55q4 -32 4 -51q0 -14 -2 -23l4 -362q0 -7 4 -23q80 94 162 94q29 0 52.5 -8t39 -20t28.5 -32.5t20 -38t13.5 -45.5t9 -45.5t6 -46.5t5.5 -42q-2 -34 -2 -60.5t2 -46.5q-3 -13 -7.5 -45t-8.5 -57.5t-14.5 -57.5t-25 -54t-40.5 -37 t-60 -15q-26 0 -50 8t-37 15.5t-41.5 28t-41.5 28.5q-7 -18 -4 -35.5t0 -31t-18 -13.5q-4 0 -30.5 -3t-29.5 -3q-5 0 -28 14q-6 105 -15 205l-10 623q0 8 -6 99t-6 101zM174 293q0 -54 48.5 -110t107.5 -56q28 0 45.5 44.5t17.5 68.5v104q0 19 -3.5 52.5t-17.5 75.5t-36 42 q-33 0 -58 -19t-53.5 -54t-50.5 -52v-96z" />
<glyph unicode="c" horiz-adv-x="442" d="M33 307q0 45 9.5 90.5t31 91.5t53 81t80.5 57t108 22q23 0 58.5 -10t38.5 -23q8 -56 8 -63q0 -6 -6.5 -12t-12.5 -6q-4 0 -29.5 7t-29.5 7q-56 0 -107.5 -34.5t-74.5 -104.5q-8 -24 -8 -109q0 -60 36 -122t91 -62q26 0 51 6t34.5 11t17.5 -2t9.5 -26.5t1.5 -68.5 q0 -14 -13 -24t-32 -14t-32 -5.5t-21 -1.5q-37 0 -84 18.5t-78 44.5q-49 46 -74.5 116t-25.5 136z" />
<glyph unicode="d" horiz-adv-x="468" d="M30 325q0 16 1 44t3.5 48.5t7 47.5t11.5 46.5t17.5 40t24.5 33.5t33 21t42 8q9 0 67.5 -19.5t67.5 -29.5l2 269q-16 197 -16 219q0 13 10 26q16 -2 27.5 -1.5t26 2t16.5 1.5q16 0 30 -14q13 -93 13 -266l4 -514q12 -114 12 -224q0 -55 -35 -55h-55q-12 0 -18 7t-7 14.5 t-1.5 20.5t-0.5 16q-1 1 -1 2h-5l-13 -6q-12 -7 -31 -16.5t-39.5 -19t-40.5 -16t-31 -6.5h-23q-12 0 -39.5 22t-32.5 29q-7 14 -12.5 32t-8 30.5t-4 36.5t-1.5 32.5v37v32.5q0 6 -0.5 29.5t-0.5 39.5zM139 385q0 -13 2 -47t8 -87t19.5 -91.5t32.5 -38.5q51 0 108 57v242 q0 19 -51.5 50.5t-73.5 31.5q-45 0 -45 -117z" />
<glyph unicode="e" horiz-adv-x="489" d="M25 307q0 35 4.5 75t19 91t36.5 90t62 66.5t91 27.5q33 0 60.5 -5.5t47.5 -13.5t35.5 -23.5t25 -28.5t16.5 -35.5t10 -38t4.5 -43t1.5 -43t-0.5 -45t-0.5 -43.5q0 -6 -6 -11t-12 -5h-4q-4 1 -11.5 2t-18.5 2t-27 2t-35.5 2t-45.5 1.5t-55 0.5q-51 0 -59 -6 q-4 -27 -4 -53.5t5.5 -68t32 -67.5t72.5 -26q28 0 40 32q11 28 10 55v8q-2 32 -1 48q7 7 15 9t21 2t22 1q4 0 15.5 4t15.5 4q15 0 22.5 -15t7.5 -30q0 -43 -9 -82t-29 -74.5t-56 -57t-84 -21.5q-58 0 -102 21.5t-68.5 53.5t-40 76t-20 82t-4.5 80zM188 438q20 -4 35 -4 t105 10q1 2 1 5q-1 15 -19 57q-22 50 -52 49q-28 0 -49 -42.5t-21 -63.5v-11z" />
<glyph unicode="f" horiz-adv-x="421" d="M41 604q0 34 11 42.5t41 8.5t52 9v155v8q0 26 5 61q7 42 21.5 91.5t47.5 84t78 34.5q57 0 77.5 -26t20.5 -81q0 -7 -5 -14.5t-13 -7.5q-4 0 -23.5 10t-23.5 10q-20 0 -34.5 -17t-22 -42t-12 -49.5t-5.5 -44.5l-2 -19v-52t-0.5 -33t-1 -17.5t-0.5 -9.5v-5q0 -13 0.5 -18.5 t6 -12.5t17.5 -7q3 0 18 3t19 3q29 0 29 -52q0 -17 -6 -37t-21 -20q-4 0 -13 1t-13 1q-18 0 -31 -8l10 -481v-15v-15t-1 -12t-2.5 -11.5t-5 -8t-8 -7t-12 -3.5t-16.5 -2h-37q-15 0 -23 14t-8.5 36.5t1 44t4 42.5t2.5 25q0 3 -4 57.5t-4 58.5v86l-7 191q-22 3 -42 3 q-26 0 -50 -5q-14 10 -14 53z" />
<glyph unicode="g" horiz-adv-x="405" d="M39 248v248q0 174 135 174q25 0 50.5 -25.5t39.5 -56.5q3 9 2.5 16.5t-2.5 16.5t-2 10q0 24 76 24q31 0 31 -151l4 -664q-7 -99 -47 -143.5t-119 -44.5q-31 0 -53 15.5t-33 36t-17 53.5t-7 53t-1 49v11v15.5t1 15t3 16t5.5 12.5t8.5 12t13 7t18 3q4 0 5.5 -3t5.5 -3 t8.5 3t7.5 3q10 0 27 -17q-1 -31 -1 -57q0 -129 33 -129q17 0 31 42.5t14 59.5v173l-6 6q-74 -37 -84 -37q-38 0 -67 22t-43.5 51.5t-23.5 68.5t-11 65t-2 49zM139 449q0 -43 8 -163t23 -167q3 -7 20 -16t25 -9q12 0 22 6.5t16 16t10 24t6 27.5t3 29t1 26t-0.5 21t-0.5 12 q0 88 -2 104q-7 40 -42 106t-68 89q-5 -17 -13 -58t-8 -48z" />
<glyph unicode="h" horiz-adv-x="479" d="M39 18q10 130 10 269v180l6 373l-4 221q7 4 30 9t30 5q15 0 22.5 -1.5t15 -6.5t9.5 -17t0 -32l2 -483q39 54 86 92.5t86 38.5q18 0 43.5 -13.5t32.5 -31.5q16 -47 25 -159t9 -169v-254q-11 -25 -23 -35t-34 -10h-31q-12 0 -28 12q-4 59 -4 189v192q0 46 -13 152l-1 3 l-5 1q-20 0 -83.5 -91t-63.5 -112v-301q0 -31 -88 -31q-16 0 -29 10z" />
<glyph unicode="i" horiz-adv-x="198" d="M37 86v561q13 15 43 15q31 0 49 -9q5 -13 9.5 -70t9 -159.5t6.5 -140.5l4 -250q-3 -6 -26.5 -13.5t-43.5 -7.5h-22q-9 0 -15.5 10t-9 24.5t-3.5 24t-1 15.5zM45 797q0 18 16.5 30.5t30.5 12.5q16 0 32.5 -14t16.5 -31q0 -16 -14.5 -30.5t-26.5 -14.5q-19 0 -37 14t-18 33 z" />
<glyph unicode="j" horiz-adv-x="194" d="M-119 -96q7 7 34.5 12.5t39.5 5.5q8 0 18.5 -7t12.5 -11q3 -15 6.5 -47.5t9.5 -55.5t18 -45q5 4 8.5 10t5.5 15t3 17t1.5 20.5t0.5 19.5v20.5v18.5v596q0 3 1.5 28.5l3.5 59.5t3 53q15 15 37 15q28 0 38 -24.5t6.5 -49t2.5 -37.5l14 -692q0 -201 -149 -201q-25 0 -44 9 t-29.5 18.5t-18.5 33t-10.5 34t-7 41t-5.5 36.5q2 2 2 28.5t-2 78.5zM45 780q0 15 10 27t25 12q25 0 35 -14.5t10 -32.5q0 -33 -39 -33q-17 0 -29 12t-12 29z" />
<glyph unicode="k" horiz-adv-x="417" d="M27 1042q0 5 29.5 15t35.5 10q15 0 25 -19.5t14.5 -52.5t6.5 -60.5t2.5 -60.5t0.5 -36q2 -29 2 -111l17 -369q34 24 58 67.5t30 88.5q2 12 4 43t5.5 50t10.5 22q9 0 31 2t25 2q30 0 30 -47q0 -48 -6 -92q-11 -58 -25 -93.5t-23.5 -44t-16.5 -14.5t-7 -14q0 -1 12 -12.5 t27.5 -28.5t22.5 -29q43 -68 43 -201q0 -59 -41 -59h-27q-3 0 -57 18q1 17 -0.5 47.5t-8 73.5t-25.5 73t-48 30h-14v-140q0 -24 -1.5 -38t-8.5 -31.5t-24 -26t-44 -8.5q-17 0 -28 14.5t-5 40.5l8 324l-8 280z" />
<glyph unicode="l" horiz-adv-x="194" d="M41 1032q0 6 2.5 11t7 7.5t9.5 4.5t11 2q7 1 11 1h4h4q4 0 6 -1q27 0 39.5 -12.5t13.5 -27.5t1.5 -40t3.5 -39l8 -887q0 -3 3 -11.5t3 -12.5q0 -16 -11 -23.5t-24 -7.5q-33 0 -78 10q-4 123 -4 272t2 283t2 148q0 41 -3.5 118.5t-7 139.5t-3.5 65z" />
<glyph unicode="m" horiz-adv-x="634" d="M49 31l6 448q2 18 2 55q-1 9 -1 20v33q0 31 1 52q2 12 43 12q27 0 35.5 -11.5t11.5 -51.5q7 5 28.5 25t39 30t37.5 10q19 0 29.5 -2t27 -14.5t29.5 -38.5q4 2 24.5 18t40.5 26.5t37 10.5q29 0 52.5 -11.5t38.5 -28.5t26 -42.5t16 -48t8.5 -50t4 -43.5t0.5 -34v-194 q0 -31 -8 -172q-29 -29 -41 -29q-7 0 -29 7.5t-25 10.5l-4 377q-6 26 -10 66.5t-9.5 58t-21.5 17.5q-24 0 -53 -23t-31 -35q-3 -15 -5 -36.5t-2.5 -42.5t0.5 -39t2 -31.5t1 -14.5v-268q0 -28 -12.5 -34.5t-40.5 -6.5q-33 0 -53 12l16 394q0 3 0.5 29.5t0 34.5t-2.5 27 t-6.5 30t-11.5 20q-29 -4 -62 -52.5t-35 -82.5q-4 -57 -4 -189v-118q0 -7 0.5 -23t0.5 -24.5t-2 -20.5t-7 -18t-15.5 -10.5t-25.5 -4.5q-3 0 -10 4t-16.5 9.5t-14.5 7.5z" />
<glyph unicode="n" horiz-adv-x="432" d="M51 451v182q10 7 31.5 14.5t28.5 7.5q30 0 39 -13.5t6.5 -37.5t3.5 -57q33 51 73.5 86t73.5 35q25 0 42 -18.5t24 -47t9.5 -48.5t2.5 -38v-473q0 -17 -20.5 -26t-32.5 -9q-11 0 -14 0.5t-8.5 5t-10.5 15.5l-10 436q0 6 -1.5 18.5t-8.5 28.5t-17 16q-16 0 -43 -41.5 t-41 -68.5q-11 -23 -22 -51l-4 -295q10 -43 -5 -57.5t-49 -14.5q-13 0 -21.5 4t-13 9t-6.5 15.5t-2.5 16.5t0 19.5t0.5 17.5v293q0 4 -2 38t-2 38z" />
<glyph unicode="o" horiz-adv-x="657" d="M37 324q0 129 91 228t222 99q70 0 124 -36.5t82.5 -92t43 -111.5t14.5 -106q0 -73 -31.5 -145t-100 -125t-158.5 -53q-65 0 -121 34.5t-91 87t-55 111t-20 109.5zM152 336q0 -22 7.5 -59.5t24.5 -84.5t52.5 -80.5t82.5 -33.5q49 0 85.5 23.5t56 61.5t28.5 79t9 84 q0 32 -6.5 66t-22.5 71t-49 60.5t-78 23.5q-70 0 -130 -74t-60 -137z" />
<glyph unicode="p" horiz-adv-x="509" d="M49 -287q0 4 3 36t3 36v172l6 600q-5 88 -6 98q12 9 35 9h12h11.5t10 -1t10.5 -3t8 -6.5t7.5 -10.5t5.5 -15.5t5 -21.5q23 31 64.5 55.5t76.5 24.5q52 0 85.5 -31.5t47 -79t18.5 -94.5t7 -86.5t6 -46.5v-84q0 -46 -22 -104.5t-61.5 -103t-80.5 -44.5h-37q-12 0 -28.5 9 t-26.5 16.5t-29 25t-22 19.5q-6 -18 -6 -45v-197q0 -3 -1 -25.5t-1 -33.5q0 -6 2 -28.5t0.5 -38.5t-9.5 -31q-23 -11 -49 -11q-30 0 -37.5 6t-7.5 35zM157 402.5q0 -8.5 0.5 -27.5t0.5 -27q0 -78 2 -115q0 -15 52.5 -66.5t80.5 -51.5q17 0 28 20.5t15 53t5 49.5t1 32 q0 86 -14.5 190t-34.5 120q-22 -7 -40.5 -16t-32 -17.5t-23.5 -20.5t-17 -21.5t-11.5 -24.5t-7 -24.5t-3.5 -27t-1 -26z" />
<glyph unicode="q" horiz-adv-x="460" d="M53 143v168q0 40 5 93t17 119.5t37.5 111.5t61.5 45q32 0 83 -33.5t67 -71.5q8 23 3 44t-0.5 36t27.5 15q30 0 44.5 -7.5t17 -22t2 -35t0.5 -46.5l-6 -602q-4 -75 -4 -155q0 -53 2 -109q-24 -15 -41 -15q-20 0 -25.5 18.5t-5.5 55.5t-4 55l-6 230q-4 0 -4 2 q-3 0 -12 -6.5t-21 -15t-19 -11.5q-34 -14 -86 -14q-62 0 -97.5 49.5t-35.5 101.5zM164 322q0 -220 61 -220q27 0 46.5 8.5t31 25.5t18.5 33t9.5 42t3.5 41v12q0 13 -1 30q-1 27 -1 34q0 14 0.5 32.5t-0.5 26t0 17.5t-3.5 18t-5.5 14.5t-11 19.5t-15.5 21.5t-23 32.5 t-29.5 41q-8 14 -39 22q-21 -17 -31 -98t-10 -153z" />
<glyph unicode="r" horiz-adv-x="352" d="M30 62q2 26 5 61q1 11 1 23q0 23 -3 47l10 464q7 -1 27 1l20 1q8 0 15.5 -1.5t18 -6.5t12.5 -14.5t-1 -26.5l2 -41q26 40 70 74.5t78 34.5q16 0 25.5 -15t12 -32t3 -36t0.5 -20q-75 -18 -148 -126q-17 -25 -26.5 -42.5t-13.5 -36t-4.5 -27.5t0.5 -35t1 -40v-151 q0 -3 1 -21.5t0.5 -30.5t-3 -28t-10 -24.5t-19.5 -8.5q-42 0 -59 16q-15 14 -15 36v6z" />
<glyph unicode="s" horiz-adv-x="409" d="M29 463q0 70 51.5 134.5t126.5 64.5q72 0 143 -60q2 -11 -2.5 -22.5t-13.5 -26t-12 -21.5q-20 8 -34 16t-19.5 12t-15.5 6.5t-28 2.5q-44 0 -70 -28t-26 -68q0 -23 18.5 -41.5t46 -30.5t59.5 -30.5t59.5 -40t46 -60.5t18.5 -90q0 -35 -35 -101q-33 -63 -48 -63h-1 q-5 1 -21.5 -8.5t-25.5 -11.5q-55 -10 -103 -10q-13 0 -31 6.5t-40.5 16.5t-34.5 14v10q0 20 18 53t35 33q3 0 15.5 -9.5t33.5 -18.5t43 -9q43 0 66.5 28t23.5 66q0 45 -25 76t-60.5 49.5t-71.5 37t-61 49.5t-25 75z" />
<glyph unicode="t" horiz-adv-x="352" d="M31 571q0 35 13 46.5t46 11.5q4 0 15 -2t16 -2q11 0 14.5 5t1.5 18t-2 14v124q0 4 -3 27t-3 27q0 22 37 22q22 0 34.5 -5.5t16 -17.5t3.5 -23t-2.5 -31.5t-2.5 -32.5v-121q1 0 25.5 -0.5t39.5 -9t15 -31.5q0 -28 -9.5 -41.5t-35.5 -13.5q-4 0 -11.5 2t-11.5 2 q-8 0 -12 -8.5t-5 -22t-1 -26t1 -24.5l1 -12l10 -292q0 -32 7.5 -44.5t18.5 -11.5t22 2.5t18.5 -9.5t7.5 -40q0 -16 -27 -27.5t-37 -11.5q-48 0 -72 35t-25 76v28q0 28 1 58q2 45 0 53q-1 12 -0.5 28.5l1.5 49.5t1 51q0 44 0.5 76t1 47t0.5 18q-25 7 -39 7q-4 0 -20.5 -2 t-20.5 -2q-28 0 -28 36z" />
<glyph unicode="u" horiz-adv-x="430" d="M37 629q11 1 27 3.5t28 4.5t14 2q34 0 37 -41l7 -244q0 -1 3 -47t8.5 -95.5t23.5 -91.5t46 -42q80 0 80 319v92q0 21 -2 62t-2 57q0 37 49 37q16 0 24 -1.5t18.5 -13.5t15.5 -36l-21 -404q0 -76 -44.5 -138t-127.5 -62q-30 0 -54.5 7.5t-42 23t-30.5 32.5t-21 43t-13 46 t-7.5 50t-3.5 47.5t-1.5 45.5t-0.5 37q0 20 -2 65.5t-2 46.5v137q0 28 -6 58z" />
<glyph unicode="v" horiz-adv-x="479" d="M39 623q0 26 63 26q28 0 31 -10q18 -54 36 -123t39 -159t32 -134q31 62 56 173.5t42.5 184t38.5 72.5q29 0 48 -13t19 -38q0 -10 -36 -162q-16 -68 -57.5 -236.5t-47.5 -191.5q-14 -10 -65 -10q-34 0 -48 8q-28 84 -53 211q-36 182 -63 293q-8 32 -15 55t-11 31.5 t-6.5 14t-2.5 8.5z" />
<glyph unicode="w" horiz-adv-x="667" d="M29 625q7 7 31.5 15.5t31.5 8.5q10 0 19.5 -7t9.5 -17q0 -25 -1 -67t-2 -74.5t-1 -34.5v-111v-12q0 -12 -0.5 -24t0 -31.5t2 -37.5t4 -40t6.5 -40t10 -35.5t14 -29.5t19.5 -19.5t24.5 -7.5q30 0 50.5 39.5t29 96.5t11.5 92.5t3 54.5q15 212 16 266q0 11 12 17t23 6 q30 0 38.5 -10t8.5 -37l-6 -110q-6 -111 -6 -134q0 -17 2.5 -47.5t9.5 -83.5t25.5 -89t46.5 -36q21 0 35.5 35.5t21.5 93.5t10 97t4 79q0 6 -0.5 21t-0.5 29t1 26q1 31 6.5 91t6.5 71q4 8 25.5 14t33.5 6q19 0 28.5 -13t10.5 -21.5t0 -24.5l-20 -260q0 -44 -7.5 -97 t-23 -111.5t-47 -97t-72.5 -38.5q-37 0 -66 20t-69 76q-6 -7 -17 -25t-20 -30q-8 -8 -43.5 -24.5t-50.5 -16.5q-4 0 -26.5 2t-26.5 2q-8 0 -30.5 9.5t-33.5 20.5q-29 28 -43 97t-14 135v209q0 21 1.5 45t0.5 47.5t-6 71.5z" />
<glyph unicode="x" horiz-adv-x="389" d="M12 627q5 10 19 13.5t36 3.5t29 1q16 -34 47 -106.5t45 -102.5q17 25 30 56.5t30 84.5t22 66q36 6 45 6q10 0 24 -6t17 -18l-116 -318q9 -32 38 -103t54 -128l24 -56q0 -24 -39 -24q-21 0 -42.5 26.5t-34.5 57t-26 64.5t-15 38q-5 -7 -26.5 -58.5t-44 -96.5t-32.5 -45 q-14 0 -32.5 10t-24.5 20l106 297z" />
<glyph unicode="y" horiz-adv-x="473" d="M27 -86q0 9 15 37.5t19 30.5q30 -27 86 -39q63 -11 78 -11q30 0 65.5 21t35.5 55v29q-1 2 -9 2q-4 0 -39 -11.5t-40 -11.5q-55 0 -90 11.5t-55.5 26.5t-30.5 57t-13 75t-6 109l-4 283q-5 23 -8 73q43 15 69 15q18 0 26 -12t8 -25t-2.5 -32t-2.5 -22v-178q0 -4 4 -51 t4 -51q0 -104 18 -145q22 -52 72 -52q113 0 113 260v115q0 3 1 23.5t3 60t4 74.5q0 8 12 16t21 8q34 0 43.5 -11.5t9.5 -45.5l-31 -487q0 -295 -178 -295q-36 0 -117 30.5t-81 67.5z" />
<glyph unicode="z" horiz-adv-x="473" d="M25 33q0 12 58.5 119t134.5 242.5t91 162.5l-233 12q-41 0 -41 45q0 17 3 26.5t12.5 13.5t17.5 5t27 0h9l338 -4q3 -6 6 -15.5t5 -12.5l-291 -539q1 -4 4.5 -6t6 -2.5t7.5 0t6 0.5l179 2q30 0 42.5 -6.5t12.5 -32.5q0 -14 -8 -23t-23 -12t-26.5 -3.5t-29 0.5t-20.5 1 q-35 0 -124.5 -2t-125.5 -2q-11 0 -24.5 9.5t-13.5 21.5z" />
<glyph unicode="&#xa6;" />
<glyph unicode="&#xb2;" />
<glyph unicode="&#xb3;" />
<glyph unicode="&#xb9;" />
<glyph unicode="&#xbc;" />
<glyph unicode="&#xbd;" />
<glyph unicode="&#xbe;" />
<glyph unicode="&#xd7;" />
<glyph unicode="&#x25fc;" horiz-adv-x="645" d="M0 0v645h645v-645h-645z" />
</font>
</defs>
</svg>
